<svg xmlns="http://www.w3.org/2000/svg" width="187.61099243164062" height="57"><rect id="backgroundrect" width="100%" height="100%" x="0" y="0" fill="none" stroke="none"/><defs><filter id="f030" xmlns:inkscape="http://www.inkscape.org/namespaces/inkscape" inkscape:label="Desaturate" x="0" y="0" width="1" height="1" inkscape:menu="Color" inkscape:menu-tooltip="Render in shades of gray by reducing saturation to zero" color-interpolation-filters="sRGB">
            <feColorMatrix type="saturate" values="0"/>
        </filter><filter id="f071" xmlns:inkscape="http://www.inkscape.org/namespaces/inkscape" inkscape:label="Colorize" inkscape:menu="Color" inkscape:menu-tooltip="Blend image or object with a flood color and set lightness and contrast" x="0" y="0" width="1" height="1" color-interpolation-filters="sRGB">
            <feColorMatrix values="1" in="SourceGraphic" type="saturate" result="result2"/>
            <feFlood flood-color="#fe6600" flood-opacity="1" result="result1"/>
            <feBlend in2="result2" mode="multiply" in="result1" result="result3"/>
            <feComposite operator="in" k2="1" result="result4" in2="SourceGraphic"/>
        </filter></defs><g class="currentLayer" style=""><title>Layer 1</title><path class="a selected" d="M40.338999755859376,56.525000793457025 c-0.3950000000000001,0.16600000000000004 -0.794,0.32300000000000006 -1.2,0.47600000000000003 h15.6 a2.2560000000000002,2.2560000000000002 0 0 0 2.258,-2.258 V39.13300079345703 a30.424,30.424 0 0 1 -16.66,17.392 z" id="svg_1" fill="#858585" fill-opacity="1" filter="url(#f030)"/><path class="a selected" d="M52.995999990463254,38.84100003242493 a26.584,26.584 0 1 0 -9.632,11.7 A26.435,26.435 0 0 0 52.995999990463254,38.84100003242493 zM36.23499999046326,46.816000032424924 a19.887,19.887 0 1 1 8.743,-7.2 A19.853,19.853 0 0 1 36.23499999046326,46.816000032424924 z" id="svg_2" fill="#858585" fill-opacity="1" filter="url(#f030)"/><path class="a selected" d="M34.743000038146974,13.715999923706054 a16.064,16.064 0 1 0 7.06,5.821 A15.973,15.973 0 0 0 34.743000038146974,13.715999923706054 zM28.500000038146972,37.60499992370605 a9.1,9.1 0 1 1 9.1,-9.1 A9.1,9.1 0 0 1 28.500000038146972,37.60499992370605 z" id="svg_3" fill="#858585" fill-opacity="1" filter="url(#f030)"/><path class="a selected" d="M16.66.476c.395-.166.794-.323,1.2-.476H2.258A2.256,2.256,0,0,0,0,2.258V17.872A30.126,30.126,0,0,1,3.281,11.5,30.465,30.465,0,0,1,16.66.476Z" id="svg_4" fill="#858585" fill-opacity="1" filter="url(#f030)"/><path class="a selected" d="M85.09599658203126,26.691000259399416 a19.389,19.389 0 0 0 -4.071,-0.6370000000000001 a0.466,0.466 0 0 0 -0.13,-0.022000000000000006 h-0.13 a2.308,2.308 0 0 0 -0.30000000000000004,-0.022000000000000006 a1.779,1.779 0 0 1 -0.274,-0.022000000000000006 c-1.216,-0.07200000000000001 -2.15,-0.16200000000000003 -2.81,-0.265 a3.747,3.747 0 0 1 -1.6340000000000001,-0.6150000000000001 a1.5830000000000002,1.5830000000000002 0 0 1 -0.6460000000000001,-1.3820000000000001 a2.652,2.652 0 0 1 1.1400000000000001,-2.338 a6.1,6.1 0 0 1 3.424,-0.781 a10.312,10.312 0 0 1 3.236,0.548 a15.028,15.028 0 0 1 3.371,1.6470000000000002 l2.7,-3.2720000000000002 a15.089,15.089 0 0 0 -5.915,-2.612 a16.887,16.887 0 0 0 -3.3890000000000002,-0.32800000000000007 a13.045,13.045 0 0 0 -4.892,0.8 a6.012,6.012 0 0 0 -2.94,2.4 a7.517,7.517 0 0 0 -0.987,4.017 a5.881,5.881 0 0 0 1.019,3.707 a5.1,5.1 0 0 0 2.558,1.7680000000000002 a17.727,17.727 0 0 0 3.7520000000000002,0.6460000000000001 c0.05800000000000001,0 0.11700000000000002,0 0.17500000000000002,0.009000000000000003 a1.1440000000000001,1.1440000000000001 0 0 0 0.17500000000000002,0.009000000000000003 c0.11700000000000002,0.013000000000000003 0.24200000000000002,0.027000000000000007 0.37300000000000005,0.031000000000000007 s0.256,0.009000000000000003 0.37300000000000005,0.009000000000000003 q1.952,0.15500000000000003 3.03,0.3410000000000001 a4.08,4.08 0 0 1 1.8,0.7360000000000001 a1.933,1.933 0 0 1 0.7230000000000001,1.6470000000000002 a2.717,2.717 0 0 1 -1.3290000000000002,2.469 a7.694,7.694 0 0 1 -3.981,0.8210000000000001 a9.991,9.991 0 0 1 -3.6,-0.7000000000000001 a15.015,15.015 0 0 1 -3.6670000000000003,-2.1 l-2.657,3.2720000000000002 a12.891,12.891 0 0 0 2.832,1.975 A13.827,13.827 0 0 0 75.73399658203124,39.628000259399414 a17.23,17.23 0 0 0 3.784,0.3950000000000001 a14.971,14.971 0 0 0 5.323,-0.812 a6.358,6.358 0 0 0 3.169,-2.424 a7.3260000000000005,7.3260000000000005 0 0 0 1.055,-4.071 a6.487,6.487 0 0 0 -1.1400000000000001,-4.125 A5.525,5.525 0 0 0 85.09599658203126,26.691000259399416 z" id="svg_5" fill="#858585" fill-opacity="1" filter="url(#f030)"/><path class="a selected" d="M109.3240005493164,17.678999191284177 a7.612,7.612 0 0 0 -4.138,-1.086 a6.6530000000000005,6.6530000000000005 0 0 0 -3.707,1.086 a7.594,7.594 0 0 0 -2.24,2.293 V16.922999191284177 H94.76400054931639 V48.96599919128418 h4.475 V36.78499919128418 a5.835,5.835 0 0 0 2.02,2.231 a6.668,6.668 0 0 0 3.707,1.019 a8.034,8.034 0 0 0 4.259,-1.086 a6.807,6.807 0 0 0 2.7,-3.151 a12.183,12.183 0 0 0 0.92,-4.959 V25.87899919128418 a12.709,12.709 0 0 0 -0.9,-5.027 A6.833,6.833 0 0 0 109.3240005493164,17.678999191284177 zm-0.9560000000000001,13.159 a5.476,5.476 0 0 1 -1.216,3.806 a4.4,4.4 0 0 1 -3.433,1.351 a4.985,4.985 0 0 1 -2.424,-0.548 a3.654,3.654 0 0 1 -1.526,-1.58 a5.458,5.458 0 0 1 -0.525,-2.5 V25.151999191284183 a5.277,5.277 0 0 1 0.525,-2.446 a3.51,3.51 0 0 1 1.526,-1.548 a5.143,5.143 0 0 1 2.424,-0.525 a4.34,4.34 0 0 1 3.433,1.3820000000000001 a5.6770000000000005,5.6770000000000005 0 0 1 1.216,3.882 z" id="svg_6" fill="#858585" fill-opacity="1" filter="url(#f030)"/><path class="a selected" d="M126.21199609374997,33.13200015258789 L120.47999609375,16.92500015258789 H115.91599609374998 l8.263,22.419 l-1.086,3.326 a4.069,4.069 0 0 1 -1.284,1.7320000000000002 a3.459,3.459 0 0 1 -1.988,0.507 h-0.9 v4.3 h0.9 a10.277,10.277 0 0 0 3.074,-0.3950000000000001 a4.843,4.843 0 0 0 2.1,-1.306 a6.674,6.674 0 0 0 1.3820000000000001,-2.469 l9.7,-28.11 h-4.564 z" id="svg_7" fill="#858585" fill-opacity="1" filter="url(#f030)"/><path class="a selected" d="M150.45800097656252,16.59299919128418 a6.412,6.412 0 0 0 -3.685,1.131 a8.02,8.02 0 0 0 -2.262,2.374 V16.922999191284177 H140.0360009765625 V39.70299919128418 h4.475 V25.28699919128418 a4.389,4.389 0 0 1 1.176,-3.258 a4.474,4.474 0 0 1 3.3,-1.176 a5.464,5.464 0 0 1 2.087,0.37300000000000005 a3.731,3.731 0 0 1 1.49,1.1 l2.917,-3.95 a6.352,6.352 0 0 0 -2.2,-1.3290000000000002 A8.466,8.466 0 0 0 150.45800097656252,16.59299919128418 z" id="svg_8" fill="#858585" fill-opacity="1" filter="url(#f030)"/><rect class="a selected" width="4.474999904632568" height="22.777999877929688" y="16.924999237060547" x="159.21400451660156" id="svg_9" fill="#858585" fill-opacity="1" filter="url(#f030)"/><rect class="a selected" width="4.474999904632568" height="4.474999904632568" y="7.796000003814697" x="159.21400451660156" id="svg_10" fill="#858585" fill-opacity="1" filter="url(#f030)"/><path class="a selected" d="M186.56100231933596,20.48899919128418 a6.912,6.912 0 0 0 -3.074,-2.895 a10.864,10.864 0 0 0 -4.852,-1 a12.3,12.3 0 0 0 -4.708,0.8660000000000001 a8.544,8.544 0 0 0 -3.411,2.424 l3.2720000000000002,2.24 a7.9,7.9 0 0 1 2.316,-1.162 a8.707,8.707 0 0 1 2.6660000000000004,-0.41700000000000004 a4.484,4.484 0 0 1 3.3890000000000002,1.239 a4.792,4.792 0 0 1 1.194,3.478 V26.22299919128418 h-6.274 q-3.864,0 -5.772,1.6880000000000002 a6.412,6.412 0 0 0 -1.908,5.067 a6.517,6.517 0 0 0 2.087,5.3 q2.087,1.7440000000000002 6.3,1.746 a10.214,10.214 0 0 0 2.567,-0.30000000000000004 a6.333,6.333 0 0 0 2.006,-0.8890000000000001 a5.159,5.159 0 0 0 1,-0.907 v1.7590000000000001 h4.259 V25.066999191284182 A9.327,9.327 0 0 0 186.56100231933596,20.48899919128418 zm-3.2,13.64 a1.8,1.8 0 0 1 -1.2610000000000001,1.71 a10.175,10.175 0 0 1 -3.8280000000000003,0.548 a5.974,5.974 0 0 1 -3.5,-0.8350000000000001 a2.963,2.963 0 0 1 -1.153,-2.567 a3.045,3.045 0 0 1 0.8660000000000001,-2.383 a3.811,3.811 0 0 1 2.621,-0.781 h6.257 z" id="svg_11" fill="#858585" fill-opacity="1" filter="url(#f030)"/><image xmlns:xlink="http://www.w3.org/1999/xlink" id="svg_13" x="231" y="95" width="0" height="0" style="color: rgb(0, 0, 0);" class="selected" xlink:href="logo/vector_paint_icon256.png" fill-opacity="1"/><image xmlns:xlink="http://www.w3.org/1999/xlink" id="svg_15" x="17" y="93" width="1" height="0" style="color: rgb(0, 0, 0);" xlink:href="logo/vector_paint_icon256.png" class="selected" fill-opacity="1"/></g></svg>